<?xml version="1.0" encoding="UTF-8" standalone="no"?>
<svg
   xmlns:dc="http://purl.org/dc/elements/1.1/"
   xmlns:cc="http://creativecommons.org/ns#"
   xmlns:rdf="http://www.w3.org/1999/02/22-rdf-syntax-ns#"
   xmlns:svg="http://www.w3.org/2000/svg"
   xmlns="http://www.w3.org/2000/svg"
   viewBox="0 0 666.66669 666.66669"
   height="666.66669"
   width="666.66669"
   xml:space="preserve"
   id="svg2"
   version="1.1"><metadata
     id="metadata8"><rdf:RDF><cc:Work
         rdf:about=""><dc:format>image/svg+xml</dc:format><dc:type
           rdf:resource="http://purl.org/dc/dcmitype/StillImage" /></cc:Work></rdf:RDF></metadata><defs
     id="defs6" /><g
     transform="matrix(1.3333333,0,0,-1.3333333,0,666.66667)"
     id="g10"><g
       transform="scale(0.1)"
       id="g12"><path
         id="path14"
         style="fill:#ffffff;fill-opacity:1;fill-rule:evenodd;stroke:none"
         d="M 0,5000 H 5000 V 0 H 0 v 5000" /><path
         id="path16"
         style="fill:#bee8d6;fill-opacity:1;fill-rule:evenodd;stroke:none"
         d="m 756.484,2381.82 c 189.571,0 344.186,154.61 344.186,344.18 0,189.57 -154.615,344.19 -344.186,344.19 -189.57,0 -344.187,-154.62 -344.187,-344.19 0,-189.57 154.617,-344.18 344.187,-344.18" /><path
         id="path18"
         style="fill:#bee8d6;fill-opacity:1;fill-rule:evenodd;stroke:none"
         d="m 2656.36,419.391 c 189.59,0 344.2,154.589 344.2,344.179 0,189.551 -154.61,344.18 -344.2,344.18 -189.56,0 -344.17,-154.629 -344.17,-344.18 0,-189.59 154.61,-344.179 344.17,-344.179" /><path
         id="path20"
         style="fill:#bee8d6;fill-opacity:1;fill-rule:evenodd;stroke:none"
         d="m 4243.51,2342.71 c 189.59,0 344.2,154.61 344.2,344.19 0,189.57 -154.61,344.19 -344.2,344.19 -189.55,0 -344.18,-154.62 -344.18,-344.19 0,-189.58 154.63,-344.19 344.18,-344.19" /><path
         id="path22"
         style="fill:#bee8d6;fill-opacity:1;fill-rule:evenodd;stroke:none"
         d="m 3047.71,4079.88 c 137.91,0 250.37,112.46 250.37,250.37 0,137.89 -112.46,250.37 -250.37,250.37 -137.9,0 -250.38,-112.48 -250.38,-250.37 0,-137.91 112.48,-250.37 250.38,-250.37" /><path
         id="path24"
         style="fill:#f9b05f;fill-opacity:1;fill-rule:evenodd;stroke:none"
         d="m 3937.98,3655.24 c 150.39,0 273.05,122.66 273.05,273.04 0,150.38 -122.66,273.04 -273.05,273.04 -150.37,0 -273.03,-122.66 -273.03,-273.04 0,-150.38 122.66,-273.04 273.03,-273.04" /><path
         id="path26"
         style="fill:#ea6c6a;fill-opacity:1;fill-rule:evenodd;stroke:none"
         d="m 3965.79,4265.16 c -1.15,-14.34 -13.16,-25.62 -27.81,-25.62 -14.63,0 -26.66,11.28 -27.81,25.62 l -13.46,106.91 v 0 c -0.39,2.29 -0.61,4.62 -0.61,7.01 0,23.12 18.75,41.86 41.88,41.86 23.12,0 41.85,-18.74 41.85,-41.86 0,-2.39 -0.19,-4.72 -0.56,-7.01 v 0 l -13.48,-106.91" /><path
         id="path28"
         style="fill:#ea6c6a;fill-opacity:1;fill-rule:evenodd;stroke:none"
         d="m 3965.79,3591.4 c -1.15,14.35 -13.16,25.62 -27.81,25.62 -14.63,0 -26.66,-11.27 -27.81,-25.62 l -13.46,-106.91 v 0 c -0.39,-2.27 -0.61,-4.62 -0.61,-7 0,-23.12 18.75,-41.87 41.88,-41.87 23.12,0 41.85,18.75 41.85,41.87 0,2.38 -0.19,4.73 -0.56,7 v 0 l -13.48,106.91" /><path
         id="path30"
         style="fill:#ea6c6a;fill-opacity:1;fill-rule:evenodd;stroke:none"
         d="m 4130.52,4206.13 c -8.19,-11.85 -24.22,-15.61 -36.92,-8.29 -12.67,7.33 -17.44,23.09 -11.27,36.1 l 41.8,99.31 v 0 c 0.82,2.17 1.8,4.3 2.99,6.37 11.56,20.02 37.17,26.88 57.19,15.31 20.02,-11.56 26.87,-37.16 15.33,-57.18 -1.21,-2.07 -2.54,-3.99 -4.02,-5.77 v -0.01 l -65.1,-85.84" /><path
         id="path32"
         style="fill:#ea6c6a;fill-opacity:1;fill-rule:evenodd;stroke:none"
         d="m 3793.62,3622.63 c 6.17,13 1.43,28.78 -11.27,36.1 -12.67,7.32 -28.71,3.56 -36.89,-8.29 l -65.12,-85.85 v 0 c -1.46,-1.79 -2.83,-3.71 -4.02,-5.78 -11.54,-20.03 -4.69,-45.63 15.35,-57.19 20.02,-11.55 45.59,-4.7 57.17,15.33 1.21,2.07 2.19,4.2 3.01,6.36 v 0 l 41.77,99.32" /><path
         id="path34"
         style="fill:#ea6c6a;fill-opacity:1;fill-rule:evenodd;stroke:none"
         d="m 4243.64,4072.64 c -13.01,-6.18 -28.79,-1.41 -36.11,11.27 -7.32,12.68 -3.56,28.72 8.28,36.9 l 85.86,65.12 v -0.01 c 1.78,1.47 3.71,2.82 5.78,4.01 20.02,11.57 45.61,4.7 57.19,-15.32 11.56,-20.02 4.69,-45.63 -15.33,-57.18 -2.07,-1.2 -4.2,-2.18 -6.35,-3 v 0 l -99.32,-41.79" /><path
         id="path36"
         style="fill:#ea6c6a;fill-opacity:1;fill-rule:evenodd;stroke:none"
         d="m 3660.15,3735.75 c 11.83,8.19 15.58,24.22 8.28,36.91 -7.33,12.67 -23.11,17.44 -36.1,11.27 l -99.31,-41.79 v 0 c -2.17,-0.81 -4.3,-1.81 -6.37,-3 -20.02,-11.56 -26.87,-37.17 -15.33,-57.19 11.56,-20.03 37.17,-26.88 57.21,-15.32 2.05,1.19 3.96,2.54 5.76,4.01 v 0 l 85.86,65.11" /><path
         id="path38"
         style="fill:#ea6c6a;fill-opacity:1;fill-rule:evenodd;stroke:none"
         d="m 4274.85,3900.47 c -14.33,1.16 -25.6,13.16 -25.6,27.81 0,14.64 11.27,26.66 25.6,27.81 l 106.92,13.47 v 0 c 2.28,0.38 4.61,0.59 7.01,0.59 23.12,0 41.85,-18.74 41.85,-41.87 0,-23.11 -18.73,-41.85 -41.85,-41.85 -2.4,0 -4.73,0.19 -7.01,0.58 v 0 l -106.92,13.46" /><path
         id="path40"
         style="fill:#ea6c6a;fill-opacity:1;fill-rule:evenodd;stroke:none"
         d="m 3601.1,3900.47 c 14.34,1.16 25.63,13.16 25.63,27.81 0,14.64 -11.29,26.66 -25.63,27.81 l -106.91,13.47 v 0 c -2.27,0.38 -4.63,0.59 -7.01,0.59 -23.11,0 -41.84,-18.74 -41.84,-41.87 0,-23.11 18.73,-41.85 41.84,-41.85 2.38,0 4.74,0.19 7.01,0.58 v 0 l 106.91,13.46" /><path
         id="path42"
         style="fill:#ea6c6a;fill-opacity:1;fill-rule:evenodd;stroke:none"
         d="m 4215.81,3735.75 c -11.84,8.19 -15.6,24.22 -8.28,36.91 7.32,12.67 23.1,17.44 36.11,11.27 l 99.32,-41.79 v 0 c 2.15,-0.81 4.28,-1.81 6.35,-3 20.02,-11.56 26.89,-37.17 15.33,-57.19 -11.56,-20.03 -37.17,-26.88 -57.19,-15.32 -2.07,1.19 -4,2.54 -5.78,4.01 v 0 l -85.86,65.11" /><path
         id="path44"
         style="fill:#ea6c6a;fill-opacity:1;fill-rule:evenodd;stroke:none"
         d="m 3632.33,4072.64 c 12.99,-6.18 28.77,-1.41 36.1,11.27 7.3,12.68 3.55,28.72 -8.28,36.9 l -85.86,65.12 v -0.01 c -1.8,1.47 -3.71,2.82 -5.76,4.01 -20.04,11.57 -45.65,4.71 -57.21,-15.32 -11.54,-20.02 -4.69,-45.63 15.33,-57.18 2.07,-1.2 4.2,-2.18 6.37,-3 v 0 l 99.31,-41.79" /><path
         id="path46"
         style="fill:#ea6c6a;fill-opacity:1;fill-rule:evenodd;stroke:none"
         d="m 4082.33,3622.63 c -6.17,13 -1.4,28.78 11.27,36.1 12.7,7.32 28.73,3.56 36.92,-8.28 l 65.1,-85.86 v 0 c 1.48,-1.79 2.81,-3.71 4.02,-5.78 11.56,-20.03 4.69,-45.63 -15.33,-57.19 -20.02,-11.55 -45.63,-4.7 -57.19,15.33 -1.19,2.07 -2.17,4.2 -2.99,6.36 v 0 l -41.8,99.32" /><path
         id="path48"
         style="fill:#ea6c6a;fill-opacity:1;fill-rule:evenodd;stroke:none"
         d="m 3745.46,4206.13 c 8.18,-11.85 24.22,-15.61 36.89,-8.29 12.7,7.33 17.44,23.09 11.27,36.1 l -41.77,99.31 v 0 c -0.82,2.17 -1.8,4.3 -3.01,6.37 -11.58,20.02 -37.15,26.88 -57.17,15.31 -20.04,-11.56 -26.89,-37.16 -15.35,-57.18 1.21,-2.07 2.56,-3.99 4.02,-5.77 v 0 l 65.12,-85.85" /><path
         id="path50"
         style="fill:#d0626e;fill-opacity:1;fill-rule:evenodd;stroke:none"
         d="m 1334.63,988.16 c -11.14,-30.91 -40.89,-53.262 -75.47,-53.262 H 685.039 c -34.59,0 -64.316,22.352 -75.476,53.262 z m -75.47,568.25 c 44.02,0 80.19,-36.18 80.19,-80.18 v -196.87 -23.91 c 0,-24.51 -20.03,-44.55 -44.55,-44.55 H 649.395 c -24.5,0 -44.54,20.04 -44.54,44.55 v 23.91 196.87 c 0,44 36.161,80.18 80.184,80.18 h 574.121 z m 0,39.12 H 685.039 c -65.613,0 -119.309,-53.69 -119.309,-119.3 v -461.11 c 0,-65.632 53.696,-119.319 119.309,-119.319 h 574.121 c 65.63,0 119.31,53.687 119.31,119.319 v 461.11 c 0,65.61 -53.68,119.3 -119.31,119.3 v 0" /><path
         id="path52"
         style="fill:#ea6c6a;fill-opacity:1;fill-rule:evenodd;stroke:none"
         d="M 1727.21,1165.27 H 565.73 V 768.711 c 0,-44.84 36.68,-81.52 81.528,-81.52 H 1727.21 c 44.83,0 81.51,36.68 81.51,81.52 v 315.019 c 0,44.86 -36.68,81.54 -81.51,81.54" /><path
         id="path54"
         style="fill:#d0626e;fill-opacity:1;fill-rule:evenodd;stroke:none"
         d="m 616.973,1181.07 h -12.118 v -481.5 c 3.844,-2.441 7.899,-4.57 12.118,-6.328 z m 722.377,0 h -12.12 V 687.191 h 12.12 v 493.879 0" /><path
         id="path56"
         style="fill:#b85769;fill-opacity:1;fill-rule:evenodd;stroke:none"
         d="m 1808.72,897.461 v 182.559 h -96.13 c -28.08,0 -51.07,-22.99 -51.07,-51.09 v -80.391 c 0,-28.09 22.99,-51.078 51.07,-51.078 h 96.13" /><path
         id="path58"
         style="fill:#3b3a7e;fill-opacity:1;fill-rule:evenodd;stroke:none"
         d="M 1808.72,827.379 H 565.742 c -13.75,0 -25,-11.25 -25,-24.981 V 669.82 c 0,-13.73 11.25,-24.98 25,-24.98 H 1808.72 c 13.75,0 24.99,11.25 24.99,24.98 v 132.578 c 0,13.731 -11.24,24.981 -24.99,24.981" /><path
         id="path60"
         style="fill:#2a2962;fill-opacity:1;fill-rule:evenodd;stroke:none"
         d="m 1500.21,910.27 c -25.5,-5.391 -49.29,-15.43 -70.43,-29.18 l -2.68,2.66 c -6.58,6.582 -17.33,6.582 -23.91,0 l -37.49,-37.48 c -6.58,-6.559 -6.58,-17.321 0,-23.911 l 2.68,-2.648 c -13.77,-21.16 -23.83,-44.961 -29.22,-70.469 h -3.74 c -9.31,0 -16.9,-7.601 -16.9,-16.922 v -52.98 c 0,-9.32 7.59,-16.918 16.9,-16.918 h 3.75 c 5.4,-25.512 15.45,-49.313 29.21,-70.453 l -2.68,-2.649 c -6.58,-6.59 -6.58,-17.351 0,-23.929 l 37.49,-37.481 c 6.58,-6.558 17.33,-6.558 23.91,0 l 2.68,2.699 c 21.14,-13.789 44.93,-23.828 70.43,-29.218 v -3.77 c 0,-9.281 7.61,-16.902 16.91,-16.902 h 53.01 c 9.3,0 16.91,7.621 16.91,16.902 v 3.77 c 25.5,5.39 49.29,15.429 70.44,29.218 l 2.68,-2.699 c 6.58,-6.558 17.32,-6.558 23.9,0 l 37.48,37.481 c 6.58,6.578 6.58,17.339 0,23.91 l -2.66,2.668 c 13.76,21.14 23.81,44.941 29.2,70.453 h 3.76 c 9.29,0 16.9,7.598 16.9,16.918 v 52.98 c 0,9.321 -7.61,16.922 -16.9,16.922 h -3.77 c -5.39,25.508 -15.43,49.309 -29.2,70.449 l 2.67,2.668 c 6.58,6.59 6.58,17.352 0,23.911 l -37.48,37.48 c -6.58,6.582 -17.32,6.582 -23.9,0 l -2.68,-2.66 c -21.14,13.75 -44.94,23.789 -70.44,29.18 v 3.769 c 0,9.301 -7.61,16.902 -16.91,16.902 h -53.01 c -9.3,0 -16.91,-7.601 -16.91,-16.902 v -3.769" /><path
         id="path62"
         style="fill:#ffffff;fill-opacity:1;fill-rule:evenodd;stroke:none"
         d="m 1543.62,547.559 c 87.17,0 158.27,71.089 158.27,158.281 0,87.172 -71.1,158.262 -158.27,158.262 -87.16,0 -158.26,-71.09 -158.26,-158.262 0,-87.192 71.1,-158.281 158.26,-158.281" /><path
         id="path64"
         style="fill:#f9a798;fill-opacity:1;fill-rule:evenodd;stroke:none"
         d="m 1543.62,831.07 c -69.16,0 -125.23,-56.07 -125.23,-125.23 0,-69.18 56.07,-125.25 125.23,-125.25 69.17,0 125.25,56.07 125.25,125.25 0,69.16 -56.08,125.23 -125.25,125.23" /><path
         id="path66"
         style="fill:#2a2962;fill-opacity:1;fill-rule:evenodd;stroke:none"
         d="m 1543.62,616.699 c 49.09,0 89.13,40.043 89.13,89.141 0,49.082 -40.04,89.121 -89.13,89.121 -49.09,0 -89.13,-40.039 -89.13,-89.121 0,-49.098 40.04,-89.141 89.13,-89.141" /><path
         id="path68"
         style="fill:#2a2962;fill-opacity:1;fill-rule:evenodd;stroke:none"
         d="m 852.051,1088.22 c -36.082,-7.63 -69.727,-21.83 -99.629,-41.31 l -3.777,3.77 c -9.309,9.32 -24.524,9.32 -33.809,0 l -53.02,-53 c -9.296,-9.282 -9.296,-24.5 0,-33.789 l 3.789,-3.789 c -19.484,-29.903 -33.691,-63.563 -41.308,-99.633 h -5.305 c -13.164,0 -23.902,-10.758 -23.902,-23.91 v -74.977 c 0,-13.141 10.738,-23.883 23.902,-23.883 h 5.305 c 7.637,-36.078 21.848,-69.73 41.308,-99.648 l -3.789,-3.77 c -9.296,-9.301 -9.296,-24.511 0,-33.812 l 53.02,-53.008 c 9.285,-9.301 24.5,-9.301 33.809,0 l 3.777,3.789 c 29.902,-19.469 63.547,-33.668 99.629,-41.309 v -5.312 c 0,-13.149 10.754,-23.91 23.906,-23.91 h 74.961 c 13.152,0 23.906,10.761 23.906,23.91 v 5.312 c 36.076,7.641 69.716,21.84 99.626,41.309 l 3.79,-3.789 c 9.29,-9.301 24.5,-9.301 33.8,0 l 53.01,53.008 c 9.31,9.301 9.31,24.511 0,33.812 l -3.78,3.77 c 19.48,29.898 33.69,63.57 41.31,99.648 h 5.3 c 13.16,0 23.91,10.742 23.91,23.883 v 74.977 c 0,13.152 -10.75,23.91 -23.91,23.91 h -5.32 c -7.62,36.07 -21.83,69.711 -41.3,99.633 l 3.79,3.789 c 9.31,9.289 9.31,24.507 0,33.789 l -53.01,53 c -9.3,9.32 -24.51,9.32 -33.8,0 l -3.79,-3.77 c -29.9,19.48 -63.55,33.68 -99.626,41.31 v 5.3 c 0,13.16 -10.754,23.9 -23.906,23.9 h -74.961 c -13.152,0 -23.906,-10.74 -23.906,-23.9 v -5.3" /><path
         id="path70"
         style="fill:#ffffff;fill-opacity:1;fill-rule:evenodd;stroke:none"
         d="m 913.43,575.25 c 123.28,0 223.83,100.551 223.83,223.832 0,123.277 -100.55,223.808 -223.83,223.808 -123.274,0 -223.821,-100.531 -223.821,-223.808 0,-123.281 100.547,-223.832 223.821,-223.832" /><path
         id="path72"
         style="fill:#f9a798;fill-opacity:1;fill-rule:evenodd;stroke:none"
         d="m 913.43,976.191 c -97.817,0 -177.114,-79.3 -177.114,-177.109 0,-97.812 79.297,-177.113 177.114,-177.113 97.82,0 177.12,79.301 177.12,177.113 0,97.809 -79.3,177.109 -177.12,177.109" /><path
         id="path74"
         style="fill:#2a2962;fill-opacity:1;fill-rule:evenodd;stroke:none"
         d="m 913.43,673.031 c 69.429,0 126.05,56.641 126.05,126.051 0,69.418 -56.621,126.039 -126.05,126.039 -69.426,0 -126.035,-56.621 -126.035,-126.039 0,-69.41 56.609,-126.051 126.035,-126.051" /><path
         id="path76"
         style="fill:#2a2962;fill-opacity:1;fill-rule:evenodd;stroke:none"
         d="m 1808.72,1067.5 h 0.01 c 17.93,0 32.6,-14.65 32.6,-32.58 v -92.361 c 0,-17.911 -14.67,-32.598 -32.6,-32.598 h -0.01 c -17.92,0 -32.59,14.687 -32.59,32.598 v 92.361 c 0,17.93 14.67,32.58 32.59,32.58" /><path
         id="path78"
         style="fill:#3b3a7e;fill-opacity:1;fill-rule:evenodd;stroke:none"
         d="m 1813.07,1048.75 h 0.01 c 8.95,0 16.29,-7.32 16.29,-16.29 v -46.151 c 0,-8.969 -7.34,-16.289 -16.29,-16.289 h -0.01 c -8.97,0 -16.29,7.32 -16.29,16.289 v 46.151 c 0,8.97 7.32,16.29 16.29,16.29" /><path
         id="path80"
         style="fill:#2a2962;fill-opacity:1;fill-rule:evenodd;stroke:none"
         d="m 1735.93,1042.52 v 0 c 12.24,0 22.25,-10.02 22.25,-22.27 v -63.039 c 0,-12.25 -10.01,-22.25 -22.25,-22.25 v 0 c -12.24,0 -22.26,10 -22.26,22.25 v 63.039 c 0,12.25 10.02,22.27 22.26,22.27" /><path
         id="path82"
         style="fill:#bcd5ed;fill-opacity:1;fill-rule:evenodd;stroke:none"
         d="m 1339.35,1255.45 c 0,-24.51 -20.03,-44.55 -44.55,-44.55 H 649.395 c -24.5,0 -44.54,20.04 -44.54,44.55 v 23.91 196.87 c 0,44 36.161,80.18 80.184,80.18 h 574.121 c 44.02,0 80.19,-36.18 80.19,-80.18 v -196.87 -23.91" /><path
         id="path84"
         style="fill:#ffffff;fill-opacity:1;fill-rule:evenodd;stroke:none"
         d="m 931.289,1233.16 301.001,301 h 69.68 l -300.99,-301 z m -240.039,1.2 c 2.258,-0.79 4.668,-1.2 7.168,-1.2 h 165.84 l 300.992,301 H 991.047 L 691.25,1234.36 v 0" /><path
         id="path86"
         style="fill:#81d3b3;fill-opacity:1;fill-rule:evenodd;stroke:none"
         d="m 3869.87,480.719 c 280.32,0 508.91,228.621 508.91,508.91 0,280.291 -228.59,508.911 -508.91,508.911 -280.29,0 -508.88,-228.62 -508.88,-508.911 0,-280.289 228.59,-508.91 508.88,-508.91" /><path
         id="path88"
         style="fill:#619fac;fill-opacity:1;fill-rule:evenodd;stroke:none"
         d="m 3869.87,1498.52 c 234.71,0 424.98,-227.84 424.98,-508.891 0,-281.059 -190.27,-508.91 -424.98,-508.91 -234.68,0 -424.96,227.851 -424.96,508.91 0,281.051 190.28,508.891 424.96,508.891" /><path
         id="path90"
         style="fill:#81d3b3;fill-opacity:1;fill-rule:evenodd;stroke:none"
         d="m 3869.87,480.719 c 179.79,0 326.41,228.621 326.41,508.91 0,280.291 -146.62,508.911 -326.41,508.911 -179.76,0 -326.38,-228.62 -326.38,-508.911 0,-280.289 146.62,-508.91 326.38,-508.91" /><path
         id="path92"
         style="fill:#619fac;fill-opacity:1;fill-rule:evenodd;stroke:none"
         d="m 3869.87,480.719 c 108.83,0 197.6,228.621 197.6,508.91 0,280.291 -88.77,508.911 -197.6,508.911 -108.81,0 -197.56,-228.62 -197.56,-508.911 0,-280.289 88.75,-508.91 197.56,-508.91" /><path
         id="path94"
         style="fill:#81d3b3;fill-opacity:1;fill-rule:evenodd;stroke:none"
         d="m 3869.87,1498.52 c 47.87,0 86.66,-227.84 86.66,-508.891 0,-281.059 -38.79,-508.91 -86.66,-508.91 -47.85,0 -86.64,227.851 -86.64,508.91 0,281.051 38.79,508.891 86.64,508.891" /><path
         id="path96"
         style="fill:#2a2962;fill-opacity:1;fill-rule:evenodd;stroke:none"
         d="m 3408.41,821.992 c 0,0 -27.87,24.977 -27.31,52.598 0.57,27.582 14.48,35.98 14.65,43.14 0.2,7.168 -13.98,19.11 -33.83,15.84 -19.84,-3.242 -7.32,-19.531 -11.15,-48.019 -3.83,-28.461 -11.09,-52.992 -30.53,-67.781 -19.45,-14.758 88.17,4.222 88.17,4.222" /><path
         id="path98"
         style="fill:#ea6c6a;fill-opacity:1;fill-rule:evenodd;stroke:none"
         d="m 3370.22,808.262 c -3.06,1.918 -9.19,5.258 -19.16,8.418 -143.3,45.492 -225.56,-68.52 -207.63,-176.469 16.35,-98.492 99.39,-165.152 226.79,-131.789 127.41,-33.363 210.47,33.297 226.82,131.789 17.93,107.949 -64.33,221.961 -207.66,176.469 -9.94,-3.16 -16.09,-6.5 -19.16,-8.418" /><path
         id="path100"
         style="fill:#d0626e;fill-opacity:1;fill-rule:evenodd;stroke:none"
         d="m 3370.22,817.969 c 2.45,2.07 7.29,5.601 15.14,8.98 113.15,48.563 178.09,-73.117 163.93,-188.301 -12.91,-105.097 -78.48,-176.207 -179.07,-140.597 -100.56,-35.61 -166.13,35.5 -179.06,140.597 -14.14,115.184 50.82,236.864 163.95,188.301 7.85,-3.379 12.71,-6.91 15.11,-8.98" /><path
         id="path102"
         style="fill:#ea6c6a;fill-opacity:1;fill-rule:evenodd;stroke:none"
         d="m 3306.65,511.27 c -70.66,85.14 -76.48,326.742 63.57,325.429 136.16,1.27 134.48,-226.949 69.38,-317.949 -33.01,-46.129 -95.8,-52.289 -132.95,-7.48" /><path
         id="path104"
         style="fill:#2a2962;fill-opacity:1;fill-rule:evenodd;stroke:none"
         d="m 3694.37,734.219 c 0,0 -20.71,18.551 -20.28,39.062 0.41,20.489 10.74,26.719 10.9,32.051 0.14,5.309 -10.41,14.18 -25.14,11.777 -14.74,-2.418 -5.45,-14.527 -8.3,-35.679 -2.83,-21.16 -8.24,-39.379 -22.67,-50.36 -14.46,-10.968 65.49,3.149 65.49,3.149" /><path
         id="path106"
         style="fill:#dd7568;fill-opacity:1;fill-rule:evenodd;stroke:none"
         d="m 3666.03,724 c -2.31,1.449 -6.86,3.91 -14.24,6.25 -106.45,33.789 -167.54,-50.891 -154.24,-131.07 12.15,-73.16 73.83,-122.68 168.48,-97.871 94.62,-24.809 156.3,24.711 168.45,97.871 13.32,80.179 -47.77,164.859 -154.24,131.07 -7.38,-2.34 -11.95,-4.801 -14.21,-6.25" /><path
         id="path108"
         style="fill:#ed9363;fill-opacity:1;fill-rule:evenodd;stroke:none"
         d="m 3666.03,731.211 c 1.79,1.559 5.39,4.18 11.23,6.68 84.04,36.07 132.28,-54.301 121.75,-139.84 -9.57,-78.09 -58.3,-130.922 -132.98,-104.461 -74.73,-26.461 -123.42,26.371 -133.01,104.461 -10.51,85.539 37.73,175.91 121.76,139.84 5.84,-2.5 9.45,-5.121 11.25,-6.68" /><path
         id="path110"
         style="fill:#f9b05f;fill-opacity:1;fill-rule:evenodd;stroke:none"
         d="m 3618.78,503.398 c -52.5,63.262 -56.8,242.711 47.25,241.743 101.11,0.929 99.88,-168.582 51.52,-236.18 -24.53,-34.25 -71.17,-38.82 -98.77,-5.563" /><path
         id="path112"
         style="fill:#81d3b3;fill-opacity:1;fill-rule:evenodd;stroke:none"
         d="m 2496.42,1174.1 c 678.34,0 1231.58,553.26 1231.58,1231.58 0,678.33 -553.24,1231.59 -1231.58,1231.59 -678.33,0 -1231.59,-553.26 -1231.59,-1231.59 0,-678.32 553.26,-1231.58 1231.59,-1231.58" /><path
         id="path114"
         style="fill:#ea6c6a;fill-opacity:1;fill-rule:evenodd;stroke:none"
         d="m 2293.96,4311.18 169.45,16.51 c 138.44,13.47 262.75,-88.76 276.25,-227.22 l 39.88,-409.59 c 13.48,-138.45 -88.77,-262.76 -227.23,-276.25 l -169.44,-16.5 c -138.46,-13.48 -262.77,88.76 -276.25,227.22 l -39.88,409.59 c -13.49,138.45 88.76,262.77 227.22,276.24" /><path
         id="path116"
         style="fill:#d0626e;fill-opacity:1;fill-rule:evenodd;stroke:none"
         d="m 2411.81,4175.21 c -394.1,-49.45 -715.72,-200.47 -718.35,-337.31 -2.63,-136.83 314.72,-207.67 708.83,-158.21 394.11,49.45 715.73,200.48 718.34,337.31 2.62,136.84 -314.72,207.68 -708.82,158.21" /><path
         id="path118"
         style="fill:#8c4371;fill-opacity:1;fill-rule:evenodd;stroke:none"
         d="m 1952.34,3678.86 c 122.26,-19.43 278.87,-20.65 449.95,0.82 161.88,20.32 311.49,57.77 431.82,104.33 l -85.55,149.8 -100.68,-42.79 -533.8,45.59 -161.74,-257.75" /><path
         id="path120"
         style="fill:#2a2962;fill-opacity:1;fill-rule:evenodd;stroke:none"
         d="m 2280.62,3258.49 c 0,0 30.43,10.89 73.42,6.19 42.98,-4.71 260.68,0 260.68,0 0,0 31.97,-5.65 48.47,-18.34 l -1.89,-25.65 c 0,0 -140.7,-48.19 -144.57,-48.19 -3.89,0 -185.66,12.94 -185.66,12.94 0,0 -54.33,29.76 -50.45,73.05" /><path
         id="path122"
         style="fill:#ef7177;fill-opacity:1;fill-rule:evenodd;stroke:none"
         d="m 2307.52,3099.43 h 330.99 v 237.17 h -330.99 v -237.17" /><path
         id="path124"
         style="fill:#3b3a7e;fill-opacity:1;fill-rule:evenodd;stroke:none"
         d="m 2722.33,3097.22 c 0,0 331.41,-131.21 359.52,-146.97 28.1,-15.76 40.82,-28.77 40.82,-28.77 0,0 -47.48,-215.44 -30.22,-503.67 11.66,-195.02 -14.94,-441.4 -33.36,-580.33 H 1876.44 c 19.5,142.21 37.97,279.04 43.03,326.41 11.53,107.87 -77.19,664.35 -109.67,749.6 l 408.28,197.27 c 25.66,9.7 54.75,27.15 55.09,57.15 0.55,47.29 0.42,36.43 0.96,83.71 0,0 2.61,6.13 6.49,6.87 78.46,-68.18 299.31,-71.03 382.57,-12.15 3.87,-0.83 6.33,-7.03 6.33,-7.03 -0.53,-47.28 -0.41,-36.44 -0.96,-83.71 -0.35,-29.99 28.34,-48.1 53.77,-58.38" /><path
         id="path126"
         style="fill:#2a2962;fill-opacity:1;fill-rule:evenodd;stroke:none"
         d="m 3090.26,2628.49 c -2.42,-63.38 -2.38,-134.48 2.19,-210.68 9.83,-164.26 -7.5,-364.94 -24.2,-507.19 -263.67,-19.37 -633.63,-17.87 -753.51,12.78 -150.33,38.38 -330.88,39.45 -418.8,57.44 11.24,83.46 20.23,152.23 23.53,183.05 5.95,55.68 -14.82,230.9 -40.76,399.13 51.82,-129.52 148.68,-125.09 148.68,-125.09 0,0 806.41,50.17 929.49,71.19 123.11,21.05 127.45,124.06 127.45,124.06 l 5.93,-4.69" /><path
         id="path128"
         style="fill:#ea6c6a;fill-opacity:1;fill-rule:evenodd;stroke:none"
         d="m 2942.14,2471.68 c 0,0 -827.48,-39.82 -868.74,-49.65 -41.26,-9.82 -82.76,-40.19 -79.53,-118.42 3.2,-78.2 -29.38,-649.63 -191,-684.92 0,0 -7.66,-129.53 -8.17,-172.73 -0.07,-6.1 -2.29,-23.28 -6.03,-48.25 200.25,-140.85 444.32,-223.61 707.75,-223.61 246.66,0 476.34,72.56 668.98,197.46 -25.55,175.18 -86.17,497.81 -86.17,497.81 0,0 -83.56,426.84 -93.17,486.61 -9.59,59.76 -8.92,116.85 -43.92,115.7" /><path
         id="path130"
         style="fill:#d0626e;fill-opacity:1;fill-rule:evenodd;stroke:none"
         d="m 1872.13,1674.49 c -19.93,-29.9 -42.86,-50.04 -69.26,-55.8 0,0 -7.66,-129.53 -8.16,-172.73 -0.05,-4.07 0.8,-8.81 2.37,-14.07 52.21,3.25 150.18,8.42 221.78,35.2 71.6,26.78 601.15,352.4 601.15,352.4 l 513.28,-250.21 c -10.25,108.2 -47.03,235.02 -51.89,280.15 l -490.96,155.34 -718.31,-330.28" /><path
         id="path132"
         style="fill:#f9a798;fill-opacity:1;fill-rule:evenodd;stroke:none"
         d="m 1982.59,2047.34 23.38,0.51 c 0,0 115.26,10.12 202.72,9.06 87.44,-1.09 585.36,95 687.39,111.33 102.04,16.31 153.68,17.03 207.8,-7.91 54.12,-24.94 -2.19,-181.68 -2.19,-181.68 l -102.11,-111.95 -36.13,17.62 c 0,0 -164.85,36.11 -199.85,34.47 -34.98,-1.66 -663.8,-296.84 -700.99,-310.82 -37.2,-13.97 -80.02,439.37 -80.02,439.37" /><path
         id="path134"
         style="fill:#ef7177;fill-opacity:1;fill-rule:evenodd;stroke:none"
         d="m 2646.67,1872.4 c -22.73,-9.88 -47.79,-20.97 -74.41,-32.87 l -270.52,176.21 47.27,15.63 343.4,-120.22 -45.74,-38.75" /><path
         id="path136"
         style="fill:#8c4371;fill-opacity:1;fill-rule:evenodd;stroke:none"
         d="m 1809.8,2913.48 c 0,0 -139.58,-62.66 -167.59,-262.92 -28.02,-200.27 -22.22,-365.95 -49.56,-507.06 -27.35,-141.12 -57.44,-297.66 -35.65,-416.2 21.78,-118.53 136.35,-217.57 283.01,-211.54 61.03,1.95 207.75,25.76 218.64,32.83 10.88,7.09 13.74,14.61 13.74,14.61 39.94,190.73 -34.96,483.5 -37.44,491.6 -2.48,8.13 -10.45,8.21 -10.45,8.21 -13.02,-0.67 -75.96,-6.12 -101.7,-8.36 -4.64,-0.24 -8.35,-0.55 -11.01,-0.96 0,0 18.54,30.18 -2.05,31.06 0,0 13.17,41.19 17.97,123.43 4.81,82.25 -75,630.9 -117.91,705.3" /><path
         id="path138"
         style="fill:#f9a798;fill-opacity:1;fill-rule:evenodd;stroke:none"
         d="m 2961.71,2081.95 c 0,0 -458.53,65.45 -532.5,73.52 -73.98,8.05 -247.58,-51.39 -287.28,-64.71 -39.7,-13.3 -46.69,-36.81 -46.69,-36.81 l 113.45,2.96 c 0,0 130.75,-55.17 210.47,-99.27 79.73,-44.14 526.01,-236.49 542.41,-240.78 16.41,-4.32 0.14,365.09 0.14,365.09" /><path
         id="path140"
         style="fill:#8c4371;fill-opacity:1;fill-rule:evenodd;stroke:none"
         d="m 3122.67,2921.49 c 148.71,-52.84 225.37,-460.85 293.84,-619.83 135.14,-313.71 42.54,-657.17 -275.13,-647.58 l 0.04,-0.13 c -29.34,-2.82 -173.07,23.14 -194.54,35.74 -21.44,12.6 -71.13,126.89 -56.79,248.55 14.33,121.66 69.24,161.19 69.24,161.19 l 88.38,-4.39 c 0,0 2.28,29.55 30.5,24.73 l 13.81,68.1 c 0,0 -36.25,550.63 30.65,733.62" /><path
         id="path142"
         style="fill:#ea6c6a;fill-opacity:1;fill-rule:evenodd;stroke:none"
         d="m 2891.71,3029.58 c 0,0 17.13,-433.68 24.43,-511.93 0,0 2.95,-12.39 -11.48,-15.82 -14.44,-3.43 -52.52,-5.05 -52.52,-5.05 0,0 -10.8,0.63 -14.3,9.94 -3.47,9.29 -46.19,562.92 -46.19,562.92 0,0 7.25,3.04 10.33,2.74 3.09,-0.29 81.45,-30.25 81.45,-30.25 0,0 6.13,-3.17 8.28,-12.55" /><path
         id="path144"
         style="fill:#ea6c6a;fill-opacity:1;fill-rule:evenodd;stroke:none"
         d="m 2068.93,3038.69 c 1.23,-14.96 42.57,-485.42 49.81,-562.65 0,0 2.94,-12.39 -11.49,-15.83 -14.45,-3.43 -52.52,-5.05 -52.52,-5.05 0,0 -11.18,1.64 -14.29,9.96 -3.12,8.28 -42.98,340.89 -62.74,529.49 1.8,2.75 1.37,6.68 5.08,9.95 17.62,15.54 56.61,33.99 77.15,36.55 2.82,0.35 6.88,-2.16 9,-2.42" /><path
         id="path146"
         style="fill:#ffffff;fill-opacity:1;fill-rule:evenodd;stroke:none"
         d="m 2093.27,2474.69 -28.68,-3.15 c -1.06,-0.13 -2,-0.7 -2.64,-1.5 -0.62,-0.76 -0.96,-1.8 -0.89,-2.87 1.74,-18.19 3.84,-36.76 5.99,-54.92 0.14,-1.08 0.69,-2 1.5,-2.64 0.77,-0.63 1.8,-0.98 2.88,-0.88 l 28.91,3.13 c 1.12,0.11 2.08,0.7 2.75,1.52 0.65,0.82 1,1.89 0.88,3.03 l -5.97,54.76 c -0.15,1.08 -0.71,2.01 -1.51,2.66 -0.78,0.62 -1.8,0.96 -2.88,0.88 z m -29.3,4.82 28.75,3.13 c 3.27,0.33 6.39,-0.7 8.77,-2.61 2.42,-1.94 4.1,-4.8 4.46,-8.1 l 5.95,-54.68 c 0.37,-3.3 -0.67,-6.47 -2.6,-8.87 -1.94,-2.4 -4.81,-4.1 -8.12,-4.45 l -28.87,-3.15 c -3.27,-0.31 -6.38,0.7 -8.77,2.62 -2.4,1.93 -4.08,4.78 -4.45,8.08 -1.81,18.27 -4.07,36.55 -5.96,54.81 -0.33,3.26 0.7,6.37 2.62,8.75 1.93,2.42 4.79,4.1 8.09,4.45 l 0.13,0.02 v 0" /><path
         id="path148"
         style="fill:#ffffff;fill-opacity:1;fill-rule:evenodd;stroke:none"
         d="m 2890.03,2519.55 -28.67,-3.13 c -1.08,-0.15 -2.01,-0.72 -2.64,-1.51 -0.62,-0.77 -0.98,-1.79 -0.92,-2.87 1.76,-18.19 3.87,-36.75 6,-54.91 0.16,-1.08 0.72,-2.01 1.5,-2.64 0.78,-0.62 1.82,-0.97 2.89,-0.9 l 28.91,3.15 c 1.11,0.12 2.07,0.68 2.73,1.52 0.67,0.82 1.02,1.9 0.9,3.03 l -5.97,54.75 c -0.14,1.07 -0.71,2.01 -1.51,2.64 -0.78,0.64 -1.79,0.98 -2.87,0.9 z m -29.3,4.83 28.75,3.14 c 3.26,0.32 6.39,-0.7 8.77,-2.63 2.4,-1.93 4.08,-4.79 4.46,-8.08 l 5.95,-54.68 c 0.37,-3.3 -0.66,-6.47 -2.62,-8.87 -1.91,-2.42 -4.8,-4.1 -8.1,-4.45 l -28.87,-3.15 c -3.26,-0.33 -6.36,0.71 -8.77,2.62 -2.4,1.93 -4.08,4.79 -4.45,8.09 -1.8,18.26 -4.06,36.53 -5.96,54.78 -0.33,3.26 0.71,6.38 2.6,8.76 1.95,2.41 4.8,4.09 8.11,4.46 l 0.13,0.01 v 0" /><path
         id="path150"
         style="fill:none;stroke:#2a2962;stroke-width:14.17300034;stroke-linecap:round;stroke-linejoin:round;stroke-miterlimit:2.61310005;stroke-dasharray:none;stroke-opacity:1"
         d="m 2672.08,3137.77 c 0,0 -129,-83.61 -369.97,-16.1" /><path
         id="path152"
         style="fill:none;stroke:#ef7177;stroke-width:14.17300034;stroke-linecap:round;stroke-linejoin:round;stroke-miterlimit:2.61310005;stroke-dasharray:none;stroke-opacity:1"
         d="m 2943.13,2084.61 c -86.54,12.3 -448.87,63.77 -513.92,70.86 -73.98,8.05 -247.58,-51.39 -287.28,-64.71 -39.7,-13.3 -46.69,-36.81 -46.69,-36.81 l 113.45,2.96 c 0,0 130.75,-55.17 210.47,-99.27" /><path
         id="path154"
         style="fill:none;stroke:#652d51;stroke-width:14.17300034;stroke-linecap:round;stroke-linejoin:round;stroke-miterlimit:2.61310005;stroke-dasharray:none;stroke-opacity:1"
         d="m 1922.83,2292.09 c 0,0 -52.4,193.28 -149.35,263.09" /><path
         id="path156"
         style="fill:none;stroke:#652d51;stroke-width:14.17300034;stroke-linecap:round;stroke-linejoin:round;stroke-miterlimit:2.61310005;stroke-dasharray:none;stroke-opacity:1"
         d="m 1586.03,2109.14 c 0,0 69.39,288.87 77.84,333.69" /><path
         id="path158"
         style="fill:none;stroke:#652d51;stroke-width:14.17300034;stroke-linecap:round;stroke-linejoin:round;stroke-miterlimit:2.61310005;stroke-dasharray:none;stroke-opacity:1"
         d="m 1911.79,2053.69 c 0,0 -111.67,-52.34 -155.23,-164.12" /><path
         id="path160"
         style="fill:none;stroke:#652d51;stroke-width:14.17300034;stroke-linecap:round;stroke-linejoin:round;stroke-miterlimit:2.61310005;stroke-dasharray:none;stroke-opacity:1"
         d="m 1909.74,2084.75 c 0,0 -84.85,2.2 -142.1,-36.78" /><path
         id="path162"
         style="fill:none;stroke:#652d51;stroke-width:14.17300034;stroke-linecap:round;stroke-linejoin:round;stroke-miterlimit:2.61310005;stroke-dasharray:none;stroke-opacity:1"
         d="m 3047.71,2095.04 c 0,0 141.85,-3.99 173.98,-82.29" /><path
         id="path164"
         style="fill:none;stroke:#652d51;stroke-width:14.17300034;stroke-linecap:round;stroke-linejoin:round;stroke-miterlimit:2.61310005;stroke-dasharray:none;stroke-opacity:1"
         d="m 3078.21,2119.77 c 0,0 72.11,4.1 106.98,-7.54" /><path
         id="path166"
         style="fill:none;stroke:#652d51;stroke-width:14.17300034;stroke-linecap:round;stroke-linejoin:round;stroke-miterlimit:2.61310005;stroke-dasharray:none;stroke-opacity:1"
         d="m 3084.33,2363.01 c 0,0 -1.31,169.19 102.67,252.53" /><path
         id="path168"
         style="fill:none;stroke:#652d51;stroke-width:14.17300034;stroke-linecap:round;stroke-linejoin:round;stroke-miterlimit:2.61310005;stroke-dasharray:none;stroke-opacity:1"
         d="m 3368.7,2438.69 c 0,0 55.59,-212.93 31.06,-277.38" /><path
         id="path170"
         style="fill:none;stroke:#652d51;stroke-width:14.17300034;stroke-linecap:round;stroke-linejoin:round;stroke-miterlimit:2.61310005;stroke-dasharray:none;stroke-opacity:1"
         d="m 3089.15,2238.81 c 0,0 26.84,57.87 65.35,75.92" /><path
         id="path172"
         style="fill:none;stroke:#2a2962;stroke-width:14.17300034;stroke-linecap:round;stroke-linejoin:round;stroke-miterlimit:2.61310005;stroke-dasharray:none;stroke-opacity:1"
         d="m 2688.92,3116.26 c 0,0 -73.07,-85.9 -243.55,-91.87" /><path
         id="path174"
         style="fill:#ef7177;fill-opacity:1;fill-rule:evenodd;stroke:none"
         d="m 2092.06,3688.3 c -2.31,-0.57 -4.58,-1.21 -6.83,-1.93 l -0.06,-0.03 0.01,0.01 c -41.4,-13.44 -69.55,-54.06 -65.54,-99.26 4.67,-52.53 51.03,-91.34 103.55,-86.67 52.53,4.66 91.35,51.03 86.68,103.55 -2.7,30.53 -19.49,56.43 -43.4,71.84 5.44,-27.77 4.73,-62.94 -30.66,-70.27 l -4.87,54.85 c -1.98,22.21 -23.74,30.17 -38.88,27.91" /><path
         id="path176"
         style="fill:#ef7177;fill-opacity:1;fill-rule:evenodd;stroke:none"
         d="m 2777.29,3762.26 c 2.39,-0.07 4.73,-0.21 7.09,-0.43 l 0.06,-0.02 v 0.01 c 43.3,-4.3 79.48,-37.98 85.22,-82.99 6.64,-52.32 -30.39,-100.13 -82.7,-106.77 -52.32,-6.66 -100.13,30.36 -106.77,82.67 -3.87,30.41 7.01,59.28 27.07,79.44 0.6,-28.28 8.8,-62.49 44.96,-62.11 l -6.94,54.63 c -2.81,22.12 16.74,34.53 32.01,35.57" /><path
         id="path178"
         style="fill:#f9a798;fill-opacity:1;fill-rule:evenodd;stroke:none"
         d="m 2091.97,3888.96 c -0.73,-16.3 -0.24,-32.86 1.56,-49.56 l 31.9,-295.66 c 19.3,-178.77 181.37,-309.25 360.16,-289.95 v 0 c 178.74,19.29 309.22,181.34 289.95,360.12 l -31.92,295.65 c -2.03,18.75 -5.62,36.97 -10.64,54.54 -58.09,94.45 -160.61,94.04 -194.55,91.09 -44.95,-3.91 -87.95,-9.77 -281.46,-33.23 -102.06,-12.37 -146.13,-75.81 -165,-133" /><path
         id="path180"
         style="fill:#2a2962;fill-opacity:1;fill-rule:evenodd;stroke:none"
         d="m 2373.13,3500.79 c 4.58,-46.5 46.02,-80.47 92.5,-75.87 46.52,4.59 80.47,46.01 75.88,92.5 l -0.13,-0.02 c -0.8,8.01 -7.97,13.91 -15.98,13.12 l -139.02,-13.74 c -8,-0.78 -13.9,-7.97 -13.11,-15.96 l -0.14,-0.03" /><path
         id="path182"
         style="fill:#e14857;fill-opacity:1;fill-rule:evenodd;stroke:none"
         d="m 2410.97,3438.34 c 15.59,-10.22 34.66,-15.39 54.67,-13.42 16.34,1.6 31.14,7.78 43.25,17.1 -8.18,16.64 -28.35,27.71 -51.2,26.3 -21.81,-1.33 -39.83,-13.63 -46.72,-29.98" /><path
         id="path184"
         style="fill:#ffffff;fill-opacity:1;fill-rule:evenodd;stroke:none"
         d="m 2527.28,3530.57 -130.67,-12.91 c -0.65,-14.66 7.48,-28.6 17.51,-30.82 12.21,-2.69 106.53,9.12 112.47,17.22 2.89,3.91 2.19,15.54 0.69,26.51" /><path
         id="path186"
         style="fill:#ef7177;fill-opacity:1;fill-rule:evenodd;stroke:none"
         d="m 2655.24,3605.77 c -26.34,-2.34 -45.8,-25.6 -43.45,-51.93 2.34,-26.34 25.58,-45.8 51.93,-43.47 26.33,2.34 45.8,25.6 43.46,51.93 -2.35,26.34 -25.61,45.81 -51.94,43.47" /><path
         id="path188"
         style="fill:#ef7177;fill-opacity:1;fill-rule:evenodd;stroke:none"
         d="m 2245.78,3561.58 c -26.34,-2.35 -45.8,-25.59 -43.47,-51.93 2.34,-26.35 25.6,-45.8 51.94,-43.47 26.34,2.34 45.8,25.59 43.46,51.94 -2.34,26.33 -25.59,45.8 -51.93,43.46" /><path
         id="path190"
         style="fill:#2a2962;fill-opacity:1;fill-rule:evenodd;stroke:none"
         d="m 2230.25,3732.16 c -5.37,-3.46 -12.56,-1.9 -16.01,3.48 -3.46,5.39 -1.91,12.58 3.46,16.02 28.89,19.07 69.59,25.32 101.54,10.55 5.79,-2.67 8.35,-9.6 5.68,-15.39 -2.66,-5.8 -9.61,-8.36 -15.4,-5.69 -25.87,11.95 -55.93,5.44 -79.27,-8.97" /><path
         id="path192"
         style="fill:#2a2962;fill-opacity:1;fill-rule:evenodd;stroke:none"
         d="m 2645.26,3776.92 c -25.89,9.12 -56.66,9.08 -79.37,-8.12 -5.1,-3.85 -12.42,-2.82 -16.27,2.26 -3.85,5.09 -2.81,12.42 2.26,16.25 28.07,21.25 69.16,23.83 101.43,11.37 6,-2.22 9.06,-8.91 6.84,-14.91 -2.25,-6 -8.93,-9.05 -14.89,-6.85" /><path
         id="path194"
         style="fill:#2a2962;fill-opacity:1;fill-rule:evenodd;stroke:none"
         d="m 2119.54,3598.36 c 0,0 46.46,25.03 37.48,108.18 -8.98,83.15 -6.77,62.67 -11.44,106.05 -4.68,43.39 17.24,122.56 105.21,132.05 105.61,11.4 211.19,22.79 316.78,34.19 87.97,9.5 126.29,-63.18 130.97,-106.56 4.67,-43.38 2.47,-22.9 11.43,-106.06 8.99,-83.14 59.73,-97.68 59.73,-97.68 -7.13,65.93 10.17,94.02 10.17,94.02 l -8.24,76.41 v 0 c -22.87,219.65 -188.24,220.13 -233.2,216.23 -44.95,-3.91 -87.95,-9.77 -281.46,-33.23 -193.5,-23.45 -178.6,-230.51 -178.6,-230.51 v 0 l 11.15,-103.4 c 0,0 22.89,-23.75 30.02,-89.69" /><path
         id="path196"
         style="fill:#2a2962;fill-opacity:1;fill-rule:evenodd;stroke:none"
         d="m 2609.7,3730.86 v 0 c 14.51,1.57 27.67,-9.02 29.22,-23.54 l 3.71,-34.41 c 1.58,-14.51 -9.01,-27.67 -23.52,-29.23 v 0 c -14.51,-1.56 -27.67,9.03 -29.24,23.54 l -3.71,34.41 c -1.56,14.51 9.03,27.67 23.54,29.23" /><path
         id="path198"
         style="fill:#fbc4bb;fill-opacity:1;fill-rule:evenodd;stroke:none"
         d="m 2427.78,3618.52 c -5.4,-11.04 -12.58,-26.63 -15.21,-36.53 -7.63,-29.11 47.81,-40.67 47.62,-10.97 -0.08,10.59 -4.43,24.88 -9.52,37.1 -13.63,32.66 -13.83,28.78 -22.89,10.4" /><path
         id="path200"
         style="fill:#2a2962;fill-opacity:1;fill-rule:evenodd;stroke:none"
         d="m 2243.55,3626.65 c -5.07,-3.74 -11.97,-1.89 -15.36,4.12 -3.39,6.03 -2.02,13.97 3.04,17.7 27.27,20.64 66.02,26.88 96.78,9.98 5.56,-3.06 8.13,-10.77 5.67,-17.15 -2.45,-6.38 -9.03,-9.09 -14.61,-6.04 -24.89,13.68 -53.47,6.97 -75.52,-8.61" /><path
         id="path202"
         style="fill:#ec7868;fill-opacity:1;fill-rule:evenodd;stroke:none"
         d="m 2368.81,4147.85 c 394.09,49.45 711.45,-21.39 708.82,-158.21 -0.88,-46.31 -38.32,-94.24 -102.7,-139.32 90.49,52.69 144.63,110.86 145.7,166.68 2.62,136.83 -314.72,207.68 -708.82,158.23 -260.74,-32.73 -489.74,-109.91 -615.65,-198.01 131.36,76.46 339.3,141.35 572.65,170.63" /><path
         id="path204"
         style="fill:#ef7177;fill-opacity:1;fill-rule:evenodd;stroke:none"
         d="m 509.578,3426.8 196.027,1.78 c 77.278,0.72 72.286,114.03 -0.378,113.36 l -196.016,-1.79 c -77.285,-0.71 -72.285,-114.03 0.367,-113.35" /><path
         id="path206"
         style="fill:#619fac;fill-opacity:1;fill-rule:evenodd;stroke:none"
         d="m 944.836,3938.22 c 1.285,7.8 2.832,15.29 4.59,22.49 1.797,7.32 3.828,14.31 6.07,20.96 8.422,24.9 19.895,45.37 33.637,61.89 14.877,17.9 32.387,31.19 51.517,40.5 17.75,8.64 36.86,13.86 56.53,16.19 21.11,2.48 42.88,1.63 64.31,-1.91 7.23,-1.19 14.45,-2.7 21.62,-4.5 7.25,-1.82 14.42,-3.94 21.47,-6.32 v 0.01 c 0.8,-0.26 1.41,-0.84 1.77,-1.55 0.35,-0.69 0.42,-1.52 0.15,-2.32 l -0.07,-0.2 c -0.97,-2.73 -21.96,-61.29 -64.37,-108.55 -42.89,-47.8 -107.61,-84.08 -195.583,-39.98 -0.637,0.31 -1.118,0.82 -1.399,1.41 -0.273,0.56 -0.359,1.23 -0.242,1.88 v 0" /><path
         id="path208"
         style="fill:#8c4371;fill-opacity:1;fill-rule:evenodd;stroke:none"
         d="m 1118.84,3713.04 c -19.41,0 -37.89,-3.91 -54.73,-10.98 -15.27,17.4 -37.66,28.39 -62.63,28.39 -12.593,0 -24.515,-2.8 -35.21,-7.8 -23.567,53.96 -77.383,91.68 -140.02,91.68 -84.355,0 -152.727,-68.38 -152.727,-152.73 0,-3 0.09,-5.97 0.266,-8.91 -3.262,0.39 -6.562,0.59 -9.91,0.59 -46.02,0 -83.32,-37.3 -83.32,-83.32 0,-5.65 0.562,-11.18 1.648,-16.52 -1.484,0.1 -2.977,0.16 -4.48,0.16 -34.106,0 -61.75,-27.64 -61.75,-61.75 0,-14.92 5.285,-28.59 14.082,-39.26 53.171,-7.14 105.41,-5 132.851,-9.18 32.235,-4.92 298.508,120.08 543.57,239.22 -24.1,19.04 -54.55,30.41 -87.64,30.41" /><path
         id="path210"
         style="fill:#619fac;fill-opacity:1;fill-rule:evenodd;stroke:none"
         d="m 825.793,4071.9 c 0.562,9.51 0.75,18.71 0.602,27.65 -0.165,9.08 -0.692,17.84 -1.559,26.25 -3.254,31.51 -11.281,58.63 -23.02,81.71 -12.714,24.99 -29.746,45.28 -49.753,61.32 -18.54,14.87 -39.602,26.09 -62.114,34.07 -24.136,8.56 -49.949,13.36 -76.07,14.91 -8.828,0.53 -17.719,0.67 -26.606,0.47 -9.019,-0.2 -18.003,-0.77 -26.921,-1.7 v 0.01 c -1.004,-0.09 -1.883,-0.61 -2.481,-1.34 -0.586,-0.73 -0.906,-1.68 -0.808,-2.68 l 0.039,-0.27 c 0.41,-3.46 9.453,-77.87 46.699,-144.71 37.676,-67.61 104.051,-127.49 219.195,-99.12 0.82,0.2 1.508,0.66 2.004,1.29 0.48,0.59 0.754,1.35 0.793,2.14 v 0" /><path
         id="path212"
         style="fill:none;stroke:#652d51;stroke-width:21.26000023;stroke-linecap:round;stroke-linejoin:round;stroke-miterlimit:2.61310005;stroke-dasharray:none;stroke-opacity:1"
         d="m 884.375,3664.29 c 0,0 0,195.88 0,272.72 0,76.85 -36.348,117.54 -72.695,152.2" /><path
         id="path214"
         style="fill:none;stroke:#652d51;stroke-width:21.26000023;stroke-linecap:round;stroke-linejoin:round;stroke-miterlimit:2.61310005;stroke-dasharray:none;stroke-opacity:1"
         d="m 884.375,3664.29 c 0,0 0,130.76 0,182.05 0,51.3 36.348,78.46 72.688,101.59" /><path
         id="path216"
         style="fill:none;stroke:#652d51;stroke-width:14.17300034;stroke-linecap:round;stroke-linejoin:round;stroke-miterlimit:2.61310005;stroke-dasharray:none;stroke-opacity:1"
         d="m 589.23,3478.54 c 0,67.16 54.43,121.6 121.59,121.6 16.668,0 32.559,-3.36 47.032,-9.44 13.117,14.96 32.375,24.4 53.828,24.4 10.82,0 21.074,-2.4 30.273,-6.7 20.235,46.38 66.504,78.8 120.332,78.8" /><path
         id="path218"
         style="fill:#f9a798;fill-opacity:1;fill-rule:evenodd;stroke:none"
         d="m 1094.97,3556.44 68.01,-60.22 214.06,-50.8 c 57.69,-13.61 59.81,41.53 59.86,43.26 v 0.04 136.62 c 0,53.59 -54.19,60.27 -55.89,60.46 l -0.05,0.01 v 0 l -236.6,25.66 -49.39,-155.03" /><path
         id="path220"
         style="fill:#ef7177;fill-opacity:1;fill-rule:evenodd;stroke:none"
         d="m 1162.98,3496.22 214.06,-50.8 c 57.69,-13.61 59.81,41.53 59.86,43.26 v 0.04 20.97 c -40.15,10.91 -85.81,22.92 -102.88,26.01 -33.06,5.99 -69.65,-5.41 -69.65,-5.41 l -101.39,-34.07" /><path
         id="path222"
         style="fill:#f9a798;fill-opacity:1;fill-rule:evenodd;stroke:none"
         d="m 505.52,3367.53 196.035,1.8 c 77.273,0.71 72.273,114.01 -0.395,113.36 l -196.015,-1.8 c -77.286,-0.71 -72.286,-114.03 0.375,-113.36" /><path
         id="path224"
         style="fill:#f9a798;fill-opacity:1;fill-rule:evenodd;stroke:none"
         d="m 650.598,3366.56 195.691,11.51 c 77.149,4.53 66.543,117.46 -5.996,113.19 l -195.691,-11.49 c -77.153,-4.55 -66.543,-117.48 5.996,-113.21" /><path
         id="path226"
         style="fill:#ef7177;fill-opacity:1;fill-rule:evenodd;stroke:none"
         d="m 528.594,3367.61 c -0.442,9.47 -1.485,27.92 -3.281,37.9 -2.461,13.78 -17.508,15.61 -17.618,15.61 l -15.507,-0.05 c -16.875,-0.05 -30.977,-12.37 -33.86,-28.43 10.246,-15.18 27.617,-25.18 47.192,-25.11 l 23.074,0.08" /><path
         id="path228"
         style="fill:#f9a798;fill-opacity:1;fill-rule:evenodd;stroke:none"
         d="m 867.703,3382.31 295.277,113.91 c -27.04,35.38 -40.91,67.69 -20.08,97.37 14.09,20.07 -56.95,11.31 -144.841,-5.8 l -175.161,-90.17 c -55.359,-28.51 -21.992,-141.09 44.805,-115.31" /><path
         id="path230"
         style="fill:#ef7177;fill-opacity:1;fill-rule:evenodd;stroke:none"
         d="m 1133.37,3570.25 c 0.27,9.64 2.67,13.15 8.81,22.28 l -84.47,5.9 c -18.27,-2.87 -38.46,-6.51 -59.651,-10.64 l -175.161,-90.17 c -4.285,-2.21 -8.043,-4.92 -11.296,-8.04 l -122.774,-7.22 c -1.484,0.13 -3.113,0.19 -4.933,0.16 l -112.899,-1.03 c 0,0 5.527,-21.78 25.305,-32.77 v -0.01 c 4.976,-4.2 17.82,-8.87 40.301,-8.39 l 158.464,3.41 1.45,0.04 3.816,0.08 3.738,0.08 3.664,0.08 3.575,0.07 3.496,0.08 3.386,0.08 3.293,0.07 3.184,0.06 3.066,0.06 2.957,0.08 2.832,0.05 2.707,0.06 2.579,0.06 2.429,0.05 2.309,0.05 2.137,0.04 2.004,0.05 1.832,0.04 1.679,0.03 1.504,0.04 1.328,0.02 1.164,0.03 c 4.66,0.11 19.024,5.15 39.309,13.28 l -0.344,0.76 c 60.02,25.66 172.5,80.3 239.21,111.18" /><path
         id="path232"
         style="fill:#f9a798;fill-opacity:1;fill-rule:evenodd;stroke:none"
         d="m 892.898,3482.17 336.862,121.2 c 85.12,30.63 -28.86,174.99 -158.34,112.02 L 847.781,3606.63 c -59.929,-29.14 -26.968,-150.41 45.117,-124.46" /><path
         id="path234"
         style="fill:#f9a798;fill-opacity:1;fill-rule:evenodd;stroke:none"
         d="m 721.035,3467.8 145.664,11.02 c 33.582,2.55 58.985,32.1 56.446,65.68 v 0 c -2.54,33.59 -32.098,58.99 -65.684,56.45 l -145.664,-11.03 c -33.574,-2.54 -58.977,-32.09 -56.438,-65.67 v 0 c 2.551,-33.59 32.102,-58.99 65.676,-56.45" /><path
         id="path236"
         style="fill:#ef7177;fill-opacity:1;fill-rule:evenodd;stroke:none"
         d="m 714.707,3474.43 28.652,2.16 c 8.996,0.69 9.844,11.02 9.844,11.02 0,0 -3.457,32.29 -7.207,47 -3.73,14.66 -20.09,15.45 -20.203,15.46 l -16.711,-1.27 c -20.449,-1.54 -35.918,-19.55 -34.375,-40 h 0.012 c 1.543,-20.45 19.539,-35.92 39.988,-34.37" /><path
         id="path238"
         style="fill:none;stroke:#3b3a7e;stroke-width:21.26000023;stroke-linecap:round;stroke-linejoin:round;stroke-miterlimit:2.61310005;stroke-dasharray:21.26, 63.78;stroke-dashoffset:0;stroke-opacity:1"
         d="m 716.418,1686.02 c -104.68,238.65 -162.773,502.38 -162.773,779.66 0,285.24 61.472,556.12 171.882,800.11 M 3037.08,599.141 c -171.64,-49.629 -353.05,-76.231 -540.66,-76.231 -191.65,0 -376.83,27.77 -551.72,79.469 M 4191.44,3415.77 c 157.77,-280.89 247.73,-604.98 247.73,-950.09 0,-344.49 -89.67,-668.04 -246.93,-948.59 M 1165.58,3881.04 c 347.66,327.04 815.86,527.42 1330.84,527.42 336.83,0 653.63,-85.73 929.8,-236.53" /></g></g></svg>